<?xml version="1.0" standalone="no"?>
<!DOCTYPE svg PUBLIC "-//W3C//DTD SVG 1.1//EN" "http://www.w3.org/Graphics/SVG/1.1/DTD/svg11.dtd" >
<!--
2013-9-30: Created.
-->
<svg>
<metadata>
Created by iconfont
</metadata>
<defs>

<font id="iconfont" horiz-adv-x="1024" >
  <font-face
    font-family="iconfont"
    font-weight="500"
    font-stretch="normal"
    units-per-em="1024"
    ascent="896"
    descent="-128"
  />
    <missing-glyph />
    
    <glyph glyph-name="home1" unicode="&#58924;" d="M515.245375 896.000025c-275.604262 0-502.276503-249.364623-502.276503-524.968885s223.426878-499.03114 499.03114-499.03114 499.03114 223.426878 499.03114 499.03114S790.849637 896.000025 515.245375 896.000025zM832.133672 263.934167l-80.027125 0 0-141.236178L568.479389 122.697989 568.479389 301.59547 450.79096 301.59547l0-178.897481-178.897481 0L271.893479 263.934167l-80.027125 0L191.866354 362.779365 512.000013 687.6427 832.133672 362.779365 832.133672 263.934167z"  horiz-adv-x="1024" />

    
    <glyph glyph-name="microphoneicon" unicode="&#58919;" d="M812.558014 388.446338c-4.987551-151.380105-121.560176-274.552667-270.253654-289.32298l0-181.998042 112.820964 0c12.461205 0 22.566239-10.109127 22.566239-22.566239s-10.109127-22.566239-22.566239-22.566239L384.363196-128.007162c-12.461205 0-22.567262 10.109127-22.567262 22.566239s10.11015 22.566239 22.567262 22.566239l112.821987 0 0 181.250165C341.435472 106.110022 217.048505 232.029574 211.891121 388.458615c-0.105378 0.875763-0.193364 25.073826 22.058788 25.073826 19.804926 0 22.579539-18.0401 22.605116-19.533808 2.396071-139.158303 115.950588-251.227297 255.68182-251.227297 138.978239 0 252.065206 110.869936 255.631689 248.989805 0.058316 2.235446 2.498379 21.7713 22.654224 21.7713C812.604053 413.532441 812.658277 389.318008 812.558014 388.446338zM511.189203 202.921714c-107.996083 0-195.552927 87.547636-195.552927 195.551904L315.636276 699.321677c0 107.997107 87.546612 195.552927 195.552927 195.552927 107.99506 0 195.554973-87.546612 195.554973-195.552927l0-300.84806C706.743153 290.47958 619.193471 202.921714 511.189203 202.921714L511.189203 202.921714zM661.617837 699.302238c0 83.082882-67.349844 150.425564-150.426587 150.425564-83.080836 0-150.425564-67.350867-150.425564-150.425564l0-300.834759c0-83.080836 67.350867-150.426587 150.425564-150.426587 83.080836 0 150.426587 67.349844 150.426587 150.426587L661.617837 699.302238zM621.385948-127.781059l0 0 0 0 0 0 0 0Z"  horiz-adv-x="1024" />

    
    <glyph glyph-name="pen-" unicode="&#59016;" d="M512 832C264.577 832 64 631.424 64 384s200.577-448 448-448 448 200.576 448 448S759.424 832 512 832z m101.538-648.807l-341.333-78.222 121.422 121.422c20.444-11.378 46.578-8.355 63.822 8.889 20.8 20.978 20.8 54.933 0 75.733-20.978 20.8-54.933 20.8-75.733 0-17.244-17.244-20.267-43.556-8.889-63.822l-121.6-121.6 78.578 341.333 181.333 41.6 144-144-41.6-181.333zM778.43 419.804c-21.822-21.822-57.729-21.92-79.648 0L567.474 551.111c-21.823 21.823-22.225 57.423 0 79.648l86.787 86.787L865.217 506.59l-86.787-86.786z"  horiz-adv-x="1024" />

    
    <glyph glyph-name="yingyong" unicode="&#58890;" d="M366.907077 459.382154H148.558769A109.331692 109.331692 0 0 0 39.384615 568.477538V786.825846C39.384615 847.005538 88.379077 896 148.558769 896h218.348308c60.179692 0 109.095385-48.994462 109.095385-109.174154v-218.348308c0-60.179692-48.915692-109.095385-109.095385-109.095384zM148.558769 823.296a36.470154 36.470154 0 0 1-36.391384-36.470154v-218.348308c0-20.007385 16.305231-36.391385 36.391384-36.391384h218.348308a36.470154 36.470154 0 0 1 36.391385 36.391384V786.825846a36.470154 36.470154 0 0 1-36.391385 36.391385H148.558769z m218.348308-873.393231H148.558769A109.331692 109.331692 0 0 0 39.384615 59.076923V277.425231c0 60.179692 48.994462 109.174154 109.174154 109.174154h218.348308c60.179692 0 109.095385-48.994462 109.095385-109.174154v-218.348308c0-60.179692-48.915692-109.174154-109.095385-109.174154zM148.558769 313.895385a36.391385 36.391385 0 0 1-36.391384-36.391385v-218.348308c0-20.086154 16.305231-36.391385 36.391384-36.391384h218.348308a36.391385 36.391385 0 0 1 36.391385 36.391384V277.425231a36.391385 36.391385 0 0 1-36.391385 36.391384H148.558769z m724.204308 145.565538H654.414769a109.331692 109.331692 0 0 0-109.174154 109.095385V786.825846C545.240615 847.005538 594.235077 896 654.414769 896h218.348308c60.179692 0 109.174154-48.994462 109.174154-109.174154v-218.348308c0-60.179692-48.994462-109.095385-109.174154-109.095384zM654.414769 823.296a36.391385 36.391385 0 0 1-36.391384-36.470154v-218.348308c0-20.007385 16.305231-36.391385 36.391384-36.391384h218.348308a36.391385 36.391385 0 0 1 36.391385 36.391384V786.825846a36.391385 36.391385 0 0 1-36.391385 36.391385H654.414769z m218.348308-873.393231H654.414769a109.331692 109.331692 0 0 0-109.174154 109.174154V277.425231c0 60.179692 48.994462 109.174154 109.174154 109.174154h218.348308c60.179692 0 109.174154-48.994462 109.174154-109.174154v-218.348308c0-60.179692-48.994462-109.174154-109.174154-109.174154zM654.414769 313.895385a36.391385 36.391385 0 0 1-36.391384-36.391385v-218.348308c0-20.086154 16.305231-36.391385 36.391384-36.391384h218.348308a36.391385 36.391385 0 0 1 36.391385 36.391384V277.425231a36.391385 36.391385 0 0 1-36.391385 36.391384H654.414769z"  horiz-adv-x="1024" />

    
    <glyph glyph-name="xinzeng" unicode="&#59263;" d="M783.669089 38.850755v-126.139743c0-15.025154-10.660704-29.764114-28.476244-29.764114a28.762437 28.762437 0 0 0-28.547792 29.764114V38.850755H567.593069c-16.456121 0-33.269983 14.166574-33.269983 28.547792 0 14.166574 12.449413 28.547792 33.269983 28.547792H726.645053V237.182784c0 14.73896 14.095025 29.692566 28.547792 29.692565 14.095025 0 28.476244-11.089994 28.476244-29.692565v-141.236445h146.674119c16.813862 0 33.269983-10.732253 33.269984-28.547792 0-14.095025-12.449413-28.547792-33.269984-28.547792h-146.674119z m-206.345445-133.22303c0-18.602571-10.946898-30.050307-28.833985-33.627725h-400.670766c-64.250419 0-114.334265 55.879262-114.334265 123.134712V745.032979c0 67.25545 49.869201 123.134712 114.334265 123.134712h722.781442c60.816098 0 114.334265-55.807714 114.334265-123.134712v-393.372834c0-14.73896-14.095025-29.764114-28.476243-29.764114a28.762437 28.762437 0 0 0-28.619341 29.764114V745.032979c0 33.627725-25.041923 59.742873-57.238681 59.742873H148.105087c-32.196758 0-57.310229-26.115148-57.31023-59.742873v-749.826719c0-33.627725 25.041923-59.742873 57.31023-59.742873h400.670765c14.095025 0 28.547792-11.089994 28.547792-29.764114zM235.60872 632.845165c0 14.381219 15.025154 28.762437 30.050307 28.476244h537.113472c14.73896 0 29.764114-14.095025 29.764114-28.476244a28.762437 28.762437 0 0 0-29.764114-28.547792H265.372834c-14.73896 0-29.764114 14.166574-29.764114 28.547792z m0-214.645053c0 14.381219 15.025154 28.762437 30.050307 28.476244h537.113472c14.73896 0 29.764114-14.095025 29.764114-28.476244a28.762437 28.762437 0 0 0-29.764114-28.547792H265.372834c-14.73896 0-29.764114 14.166574-29.764114 28.547792z"  horiz-adv-x="1024" />

    
    <glyph glyph-name="tuodong-" unicode="&#59038;" d="M773.39 476.73h2.3a77 77 0 0 0 76.91-77V171c0-107.91-87.36-195.39-195.14-195.39H498.27a195.07 195.07 0 0 0-157.72 80.33L184.79 270a76 76 0 0 0 4.61 95.07l7.24 8.16a73.72 73.72 0 0 0 104.17 6.13c0.74-0.66 1.46-1.32 2.16-2l29.71-28.64a11.47 11.47 0 0 1 19.44 8.28V620.4a77 77 0 0 0 76.91 77h2.3a77 77 0 0 0 76.91-77v-69.64a76.53 76.53 0 0 0 35.59 8.72h2.29a77 77 0 0 0 74.08-56.25 76.46 76.46 0 0 0 38.41 10.28h2.3a76.93 76.93 0 0 0 71.51-48.61 76.47 76.47 0 0 0 41 11.83zM369.9 77.35A158.75 158.75 0 0 1 498.27 12h159.18c87.72 0 158.84 71.21 158.84 159V399.73a40.63 40.63 0 0 1-40.6 40.65h-2.3a40.63 40.63 0 0 1-40.6-40.65v-81.61c0-20.88-31.29-20.88-31.29 0V436.5a40.63 40.63 0 0 1-40.6 40.66h-2.3a40.63 40.63 0 0 1-40.6-40.65v-90.8c0-20.88-31.28-20.88-31.28 0V482.48a40.63 40.63 0 0 1-40.61 40.66h-2.3a40.63 40.63 0 0 1-40.6-40.65v-109.2c0-20.88-31.28-20.88-31.28 0V620.4a40.63 40.63 0 0 1-40.6 40.66H429a40.63 40.63 0 0 1-40.6-40.66V357a47.78 47.78 0 0 0-80.93-34.46l-29.71 28.65a37.44 37.44 0 0 1-54-2.1l-7.25-8.16a39.55 39.55 0 0 1-2.4-49.52zM585 637.51a18.39 18.39 0 0 0-36.77 0 120.53 120.53 0 1 1-241.06 0 18.39 18.39 0 1 0-36.77 0 157.3 157.3 0 1 0 314.61 0z m0 0"  horiz-adv-x="1024" />

    
    <glyph glyph-name="screen-shot" unicode="&#60139;" d="M789.333333 192h85.333334v512c0 25.6-17.066667 42.666667-42.666667 42.666667h-512v-85.333334h469.333333v-469.333333zM938.666667 106.666667H234.666667V853.333333h-85.333334v-106.666666H42.666667v-85.333334h106.666666v-597.333333c0-25.6 17.066667-42.666667 42.666667-42.666667h597.333333V-85.333333h85.333334v106.666666H981.333333v85.333334h-42.666666zM320 576h384v-384h-384z"  horiz-adv-x="1024" />

    
    <glyph glyph-name="screenshot" unicode="&#58886;" d="M896 113.792h-28.458667V682.666667a28.458667 28.458667 0 0 1-28.416 28.458666H213.333333V782.208a28.458667 28.458667 0 0 1-56.874666 0v-71.082667H128a28.458667 28.458667 0 0 1 0-56.917333h28.458667V85.333333c0-15.701333 12.714667-28.458667 28.416-28.458666H810.666667v-71.082667a28.458667 28.458667 0 0 1 56.874666 0v71.082667H896a28.458667 28.458667 0 0 1 0 56.917333z m-682.666667 0V654.208h597.333334v-540.416H213.333333zM312.874667 512A56.874667 56.874667 0 1 1 426.666667 512a56.874667 56.874667 0 0 1-113.792 0z m454.272-306.602667l-84.437334 225.621334a15.232 15.232 0 0 1-13.013333 9.941333 15.445333 15.445333 0 0 1-14.890667-6.954667l-95.530666-145.877333a15.786667 15.786667 0 0 0-20.138667-5.461333L375.466667 362.154667a15.786667 15.786667 0 0 1-20.181334-5.418667l-97.152-148.352a14.634667 14.634667 0 0 1-0.554666-15.573333 15.36 15.36 0 0 1 13.781333-7.936h481.066667c5.290667 0 9.813333 2.304 12.8 6.528 3.029333 4.266667 3.712 9.173333 1.877333 13.994666z"  horiz-adv-x="1024" />

    
    <glyph glyph-name="24gl-fullScreenEnter" unicode="&#60008;" d="M128 629.333333v-490.666666a53.393333 53.393333 0 0 1 53.333333-53.333334h661.333334a53.393333 53.393333 0 0 1 53.333333 53.333334V629.333333a53.393333 53.393333 0 0 1-53.333333 53.333334H181.333333a53.393333 53.393333 0 0 1-53.333333-53.333334z m725.333333 0v-490.666666a10.666667 10.666667 0 0 0-10.666666-10.666667H181.333333a10.666667 10.666667 0 0 0-10.666666 10.666667V629.333333a10.666667 10.666667 0 0 0 10.666666 10.666667h661.333334a10.666667 10.666667 0 0 0 10.666666-10.666667z m-597.333333-608a21.333333 21.333333 0 0 0-21.333333-21.333333H96a53.393333 53.393333 0 0 0-53.333333 53.333333v138.666667a21.333333 21.333333 0 0 0 42.666666 0v-138.666667a10.666667 10.666667 0 0 1 10.666667-10.666666h138.666667a21.333333 21.333333 0 0 0 21.333333-21.333334zM42.666667 576V714.666667a53.393333 53.393333 0 0 0 53.333333 53.333333h138.666667a21.333333 21.333333 0 0 0 0-42.666667H96a10.666667 10.666667 0 0 1-10.666667-10.666666v-138.666667a21.333333 21.333333 0 0 0-42.666666 0z m938.666666 138.666667v-138.666667a21.333333 21.333333 0 0 0-42.666666 0V714.666667a10.666667 10.666667 0 0 1-10.666667 10.666666h-138.666667a21.333333 21.333333 0 0 0 0 42.666667h138.666667a53.393333 53.393333 0 0 0 53.333333-53.333333z m0-522.666667v-138.666667a53.393333 53.393333 0 0 0-53.333333-53.333333h-138.666667a21.333333 21.333333 0 0 0 0 42.666667h138.666667a10.666667 10.666667 0 0 1 10.666667 10.666666v138.666667a21.333333 21.333333 0 0 0 42.666666 0z"  horiz-adv-x="1024" />

    
    <glyph glyph-name="24gl-fullScreenExit" unicode="&#60009;" d="M768 501.333333a53.393333 53.393333 0 0 1-53.333333 53.333334H309.333333a53.393333 53.393333 0 0 1-53.333333-53.333334v-234.666666a53.393333 53.393333 0 0 1 53.333333-53.333334h405.333334a53.393333 53.393333 0 0 1 53.333333 53.333334z m-42.666667-234.666666a10.666667 10.666667 0 0 0-10.666666-10.666667H309.333333a10.666667 10.666667 0 0 0-10.666666 10.666667V501.333333a10.666667 10.666667 0 0 0 10.666666 10.666667h405.333334a10.666667 10.666667 0 0 0 10.666666-10.666667zM42.666667 576a21.333333 21.333333 0 0 0 21.333333 21.333333h138.666667a10.666667 10.666667 0 0 1 10.666666 10.666667V746.666667a21.333333 21.333333 0 0 0 42.666667 0v-138.666667a53.393333 53.393333 0 0 0-53.333333-53.333333H64a21.333333 21.333333 0 0 0-21.333333 21.333333z m725.333333 32V746.666667a21.333333 21.333333 0 0 0 42.666667 0v-138.666667a10.666667 10.666667 0 0 1 10.666666-10.666667h138.666667a21.333333 21.333333 0 0 0 0-42.666666h-138.666667a53.393333 53.393333 0 0 0-53.333333 53.333333z m-512-448v-138.666667a21.333333 21.333333 0 0 0-42.666667 0v138.666667a10.666667 10.666667 0 0 1-10.666666 10.666667H64a21.333333 21.333333 0 0 0 0 42.666666h138.666667a53.393333 53.393333 0 0 0 53.333333-53.333333z m725.333333 32a21.333333 21.333333 0 0 0-21.333333-21.333333h-138.666667a10.666667 10.666667 0 0 1-10.666666-10.666667v-138.666667a21.333333 21.333333 0 0 0-42.666667 0v138.666667a53.393333 53.393333 0 0 0 53.333333 53.333333h138.666667a21.333333 21.333333 0 0 0 21.333333-21.333333z"  horiz-adv-x="1024" />

    
    <glyph glyph-name="xiangpica1" unicode="&#59064;" d="M889.6 492.8 620.8 761.6 563.2 704 537.6 729.6 179.2 364.8l25.6-25.6L166.4 313.6c-51.2-51.2-51.2-128 0-179.2l89.6-89.6c51.2-51.2 128-51.2 179.2 0l32 32 25.6-25.6 364.8 364.8L832 435.2 889.6 492.8zM620.8 716.8l224-224-38.4-38.4L582.4 684.8 620.8 716.8zM428.8 76.8c-44.8-44.8-115.2-44.8-160 0l-70.4 70.4c-44.8 44.8-44.8 115.2 0 160L224 320 448 96 428.8 76.8z"  horiz-adv-x="1024" />

    
    <glyph glyph-name="qingchushujuku" unicode="&#58929;" d="M923.00956367 526.4855417L766.92970039 605.8053840800001l87.41440899 173.27217129A32.48204589 32.48204589 0 0 1 854.62084707 824.18574258 32.68959873 32.68959873 0 0 1 809.30510615 824.91217793l-96.78888721-191.53683545-134.56353427 68.07738692c-14.42493457 7.26435527-27.98506406 10.9311249-40.2652837 10.9311249-22.24276435 0-36.73688291-11.62296826-42.99806513-22.62327803l-1.1415419-2.21389893C394.61419268 469.47764854 109.05584258 349.33904795 106.08091631 348.09373008c-12.45318047-5.50015488-21.23959131-15.25514589-24.76799209-27.43158955-5.7768917-19.95968145 5.1542332-37.80923994 7.40272412-41.19927275l3.49380879-5.25800919 521.4769374-322.95248349c18.33384903-11.27704658 33.96950947-16.77720146 47.7371918-16.77720146 13.14502383 0 21.2741833 5.05045635 25.04473067 8.19834345l1.45287069 1.27990986c188.56190918 179.60253838 249.27116484 443.64455859 255.22101827 504.5267751 5.05045635 52.23417451-10.30846641 71.19068203-20.13264229 78.00533965z m-37.32494942-72.29763193c-0.03459199-0.41510566-5.91526055-44.41634385-26.18627167-110.59116152-94.19447461 46.28432109-309.32316914 170.36642901-379.89119268 211.32355605a548.1820916 548.1820916 0 0 1 61.91998154 98.76064043c2.35226777-0.58806651 5.84607656-1.79879238 10.58520323-4.15106015 29.78385732-15.01300107 254.04488437-128.61368174 322.19145615-163.13666573l11.2078626-5.67311572c0.79562021-4.32402099 1.52205557-12.55695732 0.17296084-26.53219336z m-262.69292636-294.13720724a32.51663789 32.51663789 0 0 1 0.72643536 45.59247862 32.68959873 32.68959873 0 0 1-45.31574093 0.72643536l-100.14432714-97.54991456a28.36557773 28.36557773 0 0 1-3.11329512-3.56299365l-152.44768564 94.40202744L425.19366934 269.91542959000003a32.41286191 32.41286191 0 0 1 8.44048915 44.79685752 32.03234825 32.03234825 0 0 1-44.5201207 8.47508115l-115.22651308-78.97391982a31.30591201 31.30591201 0 0 1-8.61345-8.95937168l-112.9434293 69.91077217c56.93870917 26.56678536 185.48320693 94.26365859 288.91379004 204.95859696 72.78192247-42.34081377 301.81666904-174.72504199 399.47035957-221.87416727-30.64866153-82.05262295-87.17226416-198.35149307-184.20329619-294.10261524a86.68797363 86.68797363 0 0 0-12.62614131 6.60710391l-112.77046846 69.84158818 91.87679883 89.45534707z"  horiz-adv-x="1024" />

    
    <glyph glyph-name="fangkuang" unicode="&#58945;" d="M774 696c27.6 0 50-22.4 50-50v-524c0-27.6-22.4-50-50-50H250c-27.6 0-50 22.4-50 50V646c0 27.6 22.4 50 50 50h524m0 72H250c-16.4 0-32.4-3.2-47.5-9.6-14.5-6.1-27.6-14.9-38.8-26.1-11.2-11.2-20-24.2-26.1-38.8-6.4-15.1-9.6-31.1-9.6-47.5v-524c0-16.4 3.2-32.4 9.6-47.5 6.1-14.5 14.9-27.6 26.1-38.8 11.2-11.2 24.2-20 38.8-26.1 15.1-6.4 31.1-9.6 47.5-9.6h524c16.4 0 32.4 3.2 47.5 9.6 14.5 6.1 27.6 14.9 38.8 26.1 11.2 11.2 20 24.2 26.1 38.8 6.4 15.1 9.6 31.1 9.6 47.5V646c0 16.4-3.2 32.4-9.6 47.5-6.1 14.5-14.9 27.6-26.1 38.8-11.2 11.2-24.2 20-38.8 26.1-15.1 6.4-31.1 9.6-47.5 9.6z"  horiz-adv-x="1024" />

    
    <glyph glyph-name="ico-" unicode="&#58887;" d="M80 407.04h864v-45.6H80Z"  horiz-adv-x="1024" />

    
    <glyph glyph-name="jiguangbi" unicode="&#58932;" d="M960 384c0 247.4-200.6 448-448 448S64 631.4 64 384s200.6-448 448-448 448 200.6 448 448z m64 0c0-282.8-229.2-512-512-512S0 101.2 0 384 229.2 896 512 896s512-229.2 512-512zM512 128c-141.2 0-256 114.8-256 256s114.8 256 256 256 256-114.8 256-256-114.8-256-256-256z m0 448c-105.9 0-192-86.1-192-192s86.1-192 192-192 192 86.1 192 192-86.1 192-192 192zM668 352h168c15.5 0 28 14.3 28 32s-12.5 32-28 32H668c-15.5 0-28-14.3-28-32s12.5-32 28-32zM188 352h168c15.5 0 28 14.3 28 32s-12.5 32-28 32H188c-15.5 0-28-14.3-28-32s12.5-32 28-32zM544 540V708c0 15.5-14.3 28-32 28s-32-12.5-32-28v-168c0-15.5 14.3-28 32-28s32 12.5 32 28zM544 60V228c0 15.5-14.3 28-32 28s-32-12.5-32-28v-168c0-15.5 14.3-28 32-28s32 12.5 32 28zM512 336c-26.6 0-48 21.5-48 48s21.4 48 48 48c26.5 0 48-21.5 48-48s-21.5-48-48-48z"  horiz-adv-x="1024" />

    
    <glyph glyph-name="home" unicode="&#58968;" d="M893.29-95.76h-296.2v275H427.83v-275h-296.2V348.55a21.16 21.16 0 1 0 42.31 0v-402h211.57v275H639.4v-275H851V327.39a21.16 21.16 0 0 0 42.31 0z m0 0M999.08 348.55a21.1 21.1 0 0 0-14.62 5.86l-472 451.48-472-451.48A21.16 21.16 0 1 0 11.2 385L512.46 864.45 1013.7 385a21.17 21.17 0 0 0-14.62-36.45z m0 0M829.82 602.43a21.16 21.16 0 0 0-21.16 21.16V750.54H681.72a21.16 21.16 0 1 0 0 42.31H851v-169.26a21.16 21.16 0 0 0-21.16-21.16z m0 0"  horiz-adv-x="1024" />

    
    <glyph glyph-name="zhuren" unicode="&#58893;" d="M456.087061 896c-167.658488 0-304.038598-134.403083-304.038598-299.628148 0-117.851105 69.397556-220.004693 170.032558-268.90338-70.431096-21.230534-134.948505-59.256592-188.467419-112.016213C47.461453 130.574127 0.024048 17.703453 0.024048-102.332411c0-13.801331 11.330046-24.973788 25.333992-24.973788 14.005992 0 25.339108 11.171434 25.339108 24.973788 0 106.695021 42.165332 207.006657 118.736265 282.482653 73.80596 72.751954 171.101913 113.967658 275.0381 116.841102 3.857864-0.146333 7.725962-0.242524 11.611455-0.242524 167.660534 0 304.036551 134.403083 304.036551 299.623032C760.120542 761.593847 623.745549 896 456.087061 896L456.087061 896 456.087061 896 456.087061 896zM460.183356 346.736305c-1.353834 0.214894-2.737344 0.358157-4.149507 0.358157-3.847631 0-7.695263-0.046049-11.534707-0.143263-134.344754 5.988388-241.778602 115.569132-241.778602 249.414513 0 137.672546 113.660666 249.688759 253.357312 249.688759 139.706879 0 253.369591-112.016213 253.369591-249.688759 0-136.319735-111.448278-247.465115-249.25897-249.63964l0 0L460.183356 346.736305 460.183356 346.736305zM607.35423-116.868475c-4.932336 0-9.867742 1.494027-14.083763 4.497431-8.388041 6.008854-11.901051 16.644075-8.700149 26.367531l51.78134 157.12048-135.639237 97.127108c-8.393157 5.989411-11.897981 16.659425-8.700149 26.380834 3.208065 9.700943 12.389168 16.280802 22.775726 16.280802L682.470021 210.90571l51.815109 157.12355c3.213181 9.721409 12.397355 16.311501 22.780843 16.311501 10.376325 0 19.570731-6.590092 22.77061-16.311501l51.815109-157.12355 167.730119 0c10.371208 0 19.570731-6.579859 22.77061-16.301268 3.213181-9.700943-0.298805-20.36891-8.698103-26.357298l-135.680169-97.127108 51.827389-157.12048c3.200902-9.700943-0.298805-20.355607-8.701173-26.355251-8.375761-6.034437-19.744693-6.034437-28.1532 0l-135.680169 97.083106-135.6464-97.086176C617.221972-115.374448 612.289636-116.868475 607.35423-116.868475L607.35423-116.868475z"  horiz-adv-x="1024" />

    
    <glyph glyph-name="warn" unicode="&#59018;" d="M842.752-51.2h-665.6c-53.76 0-97.792 22.016-120.32 60.928-22.528 38.4-20.48 87.552 5.632 134.656L398.336 746.496c26.624 47.616 67.072 74.752 111.616 74.752s84.992-27.136 111.616-74.752L957.44 144.384c26.112-47.104 28.16-96.256 5.632-134.656-22.016-38.912-66.048-60.928-120.32-60.928z m-332.8 821.248c-25.088 0-49.664-17.92-67.072-48.64L107.008 119.296c-17.408-30.72-19.456-61.44-6.144-83.968s40.96-35.328 76.288-35.328h666.112c35.328 0 62.976 12.8 76.288 35.328 13.312 22.528 10.752 53.248-6.144 83.968L576.512 721.408c-16.896 31.232-41.472 48.64-66.56 48.64zM509.952 225.792c-14.336 0-25.6 14.336-25.6 31.744V545.792c0 17.92 11.264 32.256 25.6 32.256s25.6-14.336 25.6-32.256v-287.744c0-17.92-11.264-32.256-25.6-32.256zM509.952 134.144m-35.84 0a35.84 35.84 0 1 1 71.68 0 35.84 35.84 0 1 1-71.68 0Z"  horiz-adv-x="1024" />

    
    <glyph glyph-name="userset" unicode="&#58906;" d="M1018.432 75.328c-3.712-19.968-16.64-32.896-32.64-32.896h-2.688a57.28 57.28 0 0 1-57.152-57.088c0.448-7.488 2.176-14.848 5.12-21.76 7.68-17.856 1.728-38.592-14.08-49.856l-1.6-1.024-66.304-36.48a44.288 44.288 0 0 0-50.688 9.792c-8.512 9.216-31.168 28.352-47.04 28.352-15.552 0-38.592-19.136-46.592-27.904a44.8 44.8 0 0 0-49.152-10.176l-65.536 36.48a41.664 41.664 0 0 0-15.488 50.944c1.408 3.2 5.056 13.44 5.056 21.568a57.28 57.28 0 0 1-57.216 57.088h-2.24c-16.448 0-29.248 12.992-33.088 32.96a335.616 335.616 0 0 0-5.632 52.928c0 22.272 5.056 50.048 5.632 52.992 3.84 19.904 16.64 32.896 32.64 32.896h2.752a57.152 57.152 0 0 1 57.152 56.96 64.192 64.192 0 0 1-5.12 21.888 41.28 41.28 0 0 0 14.208 49.92l1.536 0.896 67.968 37.376 1.28 0.512a45.184 45.184 0 0 0 48.704-10.24c8.32-8.576 30.528-26.688 45.952-26.688 15.168 0 37.312 17.664 45.568 26.304a45.248 45.248 0 0 0 48.832 9.728l66.752-36.864c17.28-12.032 23.36-33.6 15.488-51.072a67.2 67.2 0 0 1-4.928-21.632c0.064-31.488 25.6-56.96 57.088-56.96h2.304c16.448 0 29.248-12.992 33.088-32.96 0.576-3.008 5.632-30.72 5.632-53.056 0-23.424-5.632-52.736-5.568-52.928z m-49.728 87.936a108.992 108.992 0 0 0-94.784 108.032c0.192 11.264 2.176 22.4 5.76 32.96l-47.168 26.24c-6.144-5.632-12.672-10.88-19.52-15.744-20.608-14.464-40.32-21.76-58.816-21.76-18.816 0-38.72 7.296-59.456 22.144a170.56 170.56 0 0 0-19.52 16.192l-49.408-27.136c2.816-8.192 5.888-20.288 5.888-32.96 0-54.72-40.64-100.928-94.848-108.032-1.92-11.52-3.008-23.232-3.264-34.944 0.32-11.648 1.344-23.232 3.2-34.816 54.336-7.04 94.976-53.312 94.912-108.032 0-12.608-3.2-24.768-5.888-33.024l45.696-25.536c6.144 5.952 12.672 11.456 19.52 16.512 20.928 15.296 41.28 23.168 60.288 23.168 19.264 0 39.808-8.064 60.928-23.68 6.912-5.12 13.44-10.816 19.648-16.832l47.808 26.368a108.16 108.16 0 0 0-5.76 32.96c0 54.72 40.512 100.992 94.784 108.096 1.28 8.96 3.264 23.552 3.264 34.944 0 11.328-1.92 25.856-3.264 34.88z m-217.088-135.36a100.992 100.992 0 0 0-100.864 100.8 100.928 100.928 0 0 0 201.728 0 100.992 100.992 0 0 0-100.864-100.8z m0 147.648a48.96 48.96 0 0 1-48.896-46.912 48.896 48.896 0 0 1 97.792 0 48.96 48.96 0 0 1-48.896 46.912zM605.248 432.384l-16.384-12.8c-33.472-29.696-97.28-39.68-139.456-42.88l-5.376 0.064c-11.84 0-23.68-0.576-35.52-1.664h-0.512l0.064-0.064c-190.848-18.048-340.608-177.92-340.608-372.096v-57.088h418.112c11.008-23.744 24.64-46.08 40.768-66.752H33.728A33.536 33.536 0 0 0 0-87.552v90.496c0 181.12 109.824 341.632 279.808 409.088l19.264 7.552-16.32 12.8a257.472 257.472 0 0 0-100.48 204.096C182.336 779.52 299.712 896 444.032 896c144.256 0 261.632-116.48 261.76-259.52a257.92 257.92 0 0 0-100.48-204.16z m-161.28 396.8c-107.072 0-194.176-86.464-194.176-192.704 0-106.368 87.104-192.896 194.176-192.896 107.136 0 194.24 86.464 194.24 192.896 0 106.304-87.04 192.768-194.24 192.768z"  horiz-adv-x="1024" />

    
    <glyph glyph-name="UserSettings" unicode="&#58885;" d="M515.9 329.9c-73.7 0-143.1 28.7-195.2 80.9-52.1 52.1-80.9 121.5-80.9 195.2s28.7 143 80.9 195.1C372.8 853.3 442.1 882 515.9 882c73.7 0 143.1-28.7 195.2-80.9C763.2 749 792 679.7 792 605.9s-28.7-143.1-80.9-195.2c-52.2-52.1-121.5-80.8-195.2-80.8z m0 512.1c-130.2 0-236.1-105.9-236.1-236.1s105.9-236.1 236.1-236.1C646 369.9 752 475.8 752 605.9S646 842 515.9 842zM1004.3-118h-40c0 247-201.2 448.4-448.4 448.4C268.6 330.4 67.4 129 67.4-118h-40c0 66 12.9 129.8 38.4 190 24.6 58.2 59.8 110.3 104.7 155.2 44.9 44.9 97.1 80 155.3 104.6 60.2 25.5 124.2 38.4 190.1 38.4 65.9 0 129.9-12.9 190.1-38.4 58.2-24.6 110.4-59.8 155.3-104.7 44.9-44.9 80.1-97 104.7-155.1 25.4-60.2 38.3-124 38.3-190z"  horiz-adv-x="1024" />

    
    <glyph glyph-name="bicuxi" unicode="&#58963;" d="M761.6 588.8L294.4 121.6c-4.266667-4.266667-10.666667-4.266667-14.933333 0l-104.533334 104.533333c-4.266667 4.266667-4.266667 10.666667 0 14.933334l467.2 469.333333c4.266667 4.266667 10.666667 4.266667 14.933334 0l104.533333-104.533333c4.266667-6.4 4.266667-12.8 0-17.066667zM853.333333 680.533333l-49.066666-49.066666c-4.266667-4.266667-8.533333-4.266667-12.8 0L682.666667 740.266667c-4.266667 4.266667-4.266667 8.533333 0 12.8l49.066666 49.066666c12.8 12.8 32 12.8 44.8 0L853.333333 725.333333c12.8-12.8 12.8-32 0-44.8zM238.933333 83.2l-138.666666-27.733333 32 134.4c2.133333 6.4 6.4 8.533333 12.8 8.533333 2.133333 0 4.266667-2.133333 4.266666-2.133333l93.866667-93.866667c4.266667-4.266667 4.266667-10.666667 0-14.933333 0-2.133333-2.133333-4.266667-4.266667-4.266667zM42.666667 14.933333c55.466667-21.333333 140.8-44.8 213.333333-27.733333 25.6 6.4 142.933333 57.6 170.666667 70.4 125.866667 64 204.8 113.066667 364.8 91.733333 72.533333-8.533333 138.666667-36.266667 168.533333-76.8 38.4-55.466667 6.4-115.2-51.2-108.8-12.8 2.133333-25.6 6.4-42.666667 14.933334-8.533333 4.266667-17.066667 8.533333-25.6 14.933333-42.666667 29.866667-91.733333 49.066667-142.933333 51.2-55.466667 2.133333-160-12.8-226.133333-42.666667-4.266667-2.133333-10.666667-4.266667-21.333334-8.533333-8.533333-4.266667-14.933333-6.4-19.2-8.533333-32-12.8-55.466667-21.333333-76.8-29.866667-55.466667-19.2-85.333333-25.6-123.733333-25.6-57.6 0-123.733333 38.4-187.733333 85.333333z"  horiz-adv-x="1024" />

    
    <glyph glyph-name="layer" unicode="&#58955;" d="M12.589475 356.072727l463.127273-262.981818c2.327273-2.327273 13.963636-9.309091 34.909091-9.309091 13.963636 0 32.581818 4.654545 53.527273 16.290909 39.563636 23.272727 444.509091 262.981818 449.163636 265.309091 11.636364 6.981818 13.963636 20.945455 9.309091 32.581818-6.981818 11.636364-20.945455 13.963636-32.581818 9.309091-4.654545-2.327273-409.6-239.709091-449.163636-265.309091-25.6-16.290909-39.563636-9.309091-39.563636-6.981818l-465.454545 265.309091c-11.636364 6.981818-25.6 2.327273-32.581818-9.309091C-1.374162 377.018182 0.953111 363.054545 12.589475 356.072727zM990.04402 204.8c-4.654545-2.327273-409.6-239.709091-449.163636-265.309091-25.6-16.290909-39.563636-9.309091-39.563636-6.981818l-465.454545 265.309091c-11.636364 6.981818-25.6 2.327273-32.581818-9.309091-6.981818-11.636364-2.327273-25.6 9.309091-32.581818l463.127273-262.981818c2.327273-2.327273 13.963636-9.309091 34.909091-9.309091 13.963636 0 32.581818 4.654545 53.527273 16.290909 39.563636 23.272727 444.509091 262.981818 449.163636 265.309091 11.636364 6.981818 13.963636 20.945455 9.309091 32.581818C1015.64402 207.127273 1001.680384 209.454545 990.04402 204.8zM12.589475 572.509091l463.127273-262.981818c2.327273-2.327273 13.963636-9.309091 34.909091-9.309091 13.963636 0 32.581818 4.654545 53.527273 16.290909 39.563636 23.272727 444.509091 262.981818 449.163636 265.309091 6.981818 4.654545 11.636364 11.636364 11.636364 18.618182 0 0 0 2.327273 0 2.327273 0 0 0 2.327273 0 2.327273 0 6.981818-4.654545 16.290909-11.636364 18.618182l-463.127273 262.981818c-4.654545 2.327273-37.236364 23.272727-88.436364-6.981818-39.563636-23.272727-444.509091-262.981818-449.163636-265.309091-6.981818-4.654545-11.636364-11.636364-11.636364-18.618182 0 0 0-2.327273 0-2.327273 0 0 0-2.327273 0-2.327273C0.953111 584.145455 5.607657 577.163636 12.589475 572.509091zM485.025838 840.145455c25.6 16.290909 39.563636 9.309091 39.563636 6.981818l432.872727-246.690909c-97.745455-58.181818-384-225.745455-416.581818-244.363636-25.6-16.290909-39.563636-9.309091-39.563636-6.981818l-432.872727 246.690909C166.189475 651.636364 452.44402 819.2 485.025838 840.145455z"  horiz-adv-x="1025" />

    
    <glyph glyph-name="paint-bucket" unicode="&#59393;" d="M451.8 708.3L322.7 836l-42.8-42.5L409 665.8zM452.1 708.3L65 325.29999999999995l387.1-383 387.1 383-387.1 383zM183.9 359.5L452 623.2l268.6-263.8H183.9zM869.6 230.39999999999998s-89.4-159.5-89.4-208.9c0-49.4 40-89.5 89.4-89.5 49.4 0.1 89.4 40.1 89.4 89.5s-89.4 208.9-89.4 208.9z"  horiz-adv-x="1024" />

    
    <glyph glyph-name="weixuan-kongxin-fangxing" unicode="&#59604;" d="M789.333333 725.333333c36.266667 0 64-27.733333 64-64v-554.666666c0-36.266667-27.733333-64-64-64H234.666667c-36.266667 0-64 27.733333-64 64V661.333333c0 36.266667 27.733333 64 64 64h554.666666m0 64H234.666667c-70.4 0-128-57.6-128-128v-554.666666c0-70.4 57.6-128 128-128h554.666666c70.4 0 128 57.6 128 128V661.333333c0 70.4-57.6 128-128 128z"  horiz-adv-x="1024" />

    
    <glyph glyph-name="weixuan-shixin-fangxing" unicode="&#59605;" d="M917.333333 106.666667c0-70.4-57.6-128-128-128H234.666667c-70.4 0-128 57.6-128 128V661.333333c0 70.4 57.6 128 128 128h554.666666c70.4 0 128-57.6 128-128v-554.666666z"  horiz-adv-x="1024" />

    
    <glyph glyph-name="shixinyuan" unicode="&#58987;" d="M512-73.426824a481.882353 481.882353 0 1 1 0 963.764706 481.882353 481.882353 0 0 1 0-963.764706z"  horiz-adv-x="1024" />

    
    <glyph glyph-name="kongxinyuan" unicode="&#58897;" d="M512-128C229.2224-128 0 101.2224 0 384 0 666.7776 229.2224 896 512 896c282.7776 0 512-229.2224 512-512 0-282.7776-229.2224-512-512-512z m0 34.133333c263.918933 0 477.866667 213.947733 477.866667 477.866667S775.918933 861.866667 512 861.866667 34.133333 647.918933 34.133333 384s213.947733-477.866667 477.866667-477.866667z"  horiz-adv-x="1024" />

    
    <glyph glyph-name="chalk" unicode="&#58884;" d="M987.2704-47.584c-93.344-17.0944-184.5504-13.536-275.168 14.4704-35.0848 10.8416-65.1968 25.6576-94.9952 46.9504-25.2992 18.08-49.6512 29.7088-81.1392 31.744a243.1296 243.1296 0 0 1-126.7648-26.2976c-40.4992-20.7744-75.8144-50.24-116.7552-70.3168-85.4592-41.9072-170.2848-42.8928-241.0304 28.1472 0.2304 0.0704 0.4672 0.096 0.6976 0.1728l289.7472 100.3072 15.52 5.3696 16.704 16.704L733.2928 458.88l162.2016 162.2016c29.9456 29.9456 29.9456 78.6688 0 108.6144L763.4304 861.7472a76.224 76.224 0 0 1-54.2976 22.4256 76.2496 76.2496 0 0 1-54.304-22.4256L519.776 726.7008 500.2752 707.2l-7.648-7.648-359.2064-359.2128-17.1392-17.1392-4.3648-15.6608-85.4144-306.1824a19.8784 19.8784 0 0 1 4.7488-18.7968c-6.6176-2.4576-12.8384-19.3984-4.0512-28.4288C84.6976-104.9024 177.0688-128 249.6-98.7584c37.4592 15.104 74.4256 30.5664 108.4288 52.2112 48.608 30.944 92.3712 62.3744 152.3648 63.6352 42.5728 0.896 65.1264-17.8752 98.5856-39.9232 32.608-21.4912 69.5488-33.5232 106.9248-43.8272 92.1856-25.408 184.8768-25.2224 278.6368-8.0512 23.6224 4.3328 15.9232 31.3792-7.2704 27.1296zM681.9776 834.5984a38.1376 38.1376 0 0 0 27.1552 11.1808c10.2976 0 19.936-3.9744 27.1488-11.1808l132.0704-132.064a38.4448 38.4448 0 0 0 0-54.304l-135.0528-135.0464-93.1904 93.184-93.184 93.184 135.0528 135.0464zM519.776 672.3968l17.1584-17.1584 169.216-169.216-359.2064-359.2064-186.368 186.3744 359.2 359.2064zM143.0784 276.3712L292.672 126.784l19.008-19.008-238.6752-82.6304 70.0736 251.2256z"  horiz-adv-x="1024" />

    
    <glyph glyph-name="hf_makebi" unicode="&#59304;" d="M994.6112 549.888L686.08 865.1776c-39.3216 40.1408-103.424 41.1648-143.9744 2.3552L165.376 506.88l36.5568-37.5808c-44.032-45.7728-75.5712-96.768-82.8416-142.1312-5.4272-34.2016-12.5952-49.9712-28.16-68.4032-2.1504-2.56-25.2928-27.8528-33.8944-38.2976l-14.7456-17.8176L58.368 186.0608c14.4384-14.848 26.9312-27.648 37.7856-38.8096L0 47.9232 204.9024-128l82.6368 83.3536c8.3968-8.192 17.6128-17.2032 27.648-27.0336l19.5584-19.1488 17.7152 20.8896c25.7024 30.1056 58.88 45.3632 131.8912 65.4336 38.1952 10.4448 76.8 33.6896 111.104 69.2224l32.768-33.6896 366.3872 374.6816c39.2192 40.0384 39.2192 104.2432 0 144.1792z m-436.224-449.9456c-27.2384-28.9792-59.0848-47.104-87.4496-54.8864-67.7888-18.5344-107.3152-34.5088-138.24-62.0544-56.832 55.5008-82.0224 80.2816-108.6464 107.1104l-2.7648 2.7648c-26.0096 26.112-43.9296 44.4416-109.568 112.0256 8.192 9.216 16.5888 18.432 18.3296 20.48 21.8112 25.7024 32.768 50.176 39.7312 93.5936 5.3248 33.4848 33.1776 76.6976 68.096 113.4592l115.3024-118.4768 205.2096-214.016z m399.6672 341.8112l-329.728-337.2032-286.72 294.7072-102.2976 105.8816-0.4096-0.3072-0.7168 0.7168L577.536 830.3616c20.2752 19.456 52.3264 18.8416 71.9872-1.1264l308.5312-315.2896c19.5584-20.0704 19.5584-52.1216 0-72.192z"  horiz-adv-x="1024" />

    
    <glyph glyph-name="shuazi" unicode="&#59093;" d="M884.451556-39.537778H138.638222l21.959111-22.300444v333.653333c0 50.858667-6.656 105.130667 27.306667 147.456 37.262222 46.250667 89.429333 44.259556 141.767111 44.259556h412.842667c49.095111 0 90.112-30.037333 110.648889-74.296889 9.500444-20.48 9.329778-42.894222 9.329777-64.853334v-386.218666c0-28.728889 43.918222-28.728889 43.918223 0v333.653333c0 51.882667 4.096 102.741333-20.48 150.471111-32.711111 63.431111-97.792 85.788444-163.669334 85.788445H347.818667c-46.762667 0-92.046222 3.413333-136.248889-15.530667C167.025778 473.429333 134.940444 430.307556 122.026667 384c-5.575111-20.138667-5.347556-40.96-5.347556-61.667556v-384.170666c0-12.117333 10.012444-22.300444 21.959111-22.300445h745.813334c28.273778 0 28.273778 44.600889 0 44.600889zM139.377778 264.874667h744.618666c30.151111 0 30.151111 47.957333 0 47.957333H139.320889c-30.151111 0-30.151111-47.957333 0-47.957333z m395.719111-325.802667v203.662222c0 30.947556-46.819556 30.947556-46.819556 0v-203.662222c0-30.890667 46.819556-30.890667 46.819556 0z m-189.212445 0v203.662222c0 30.947556-46.819556 30.947556-46.819555 0v-203.662222c0-30.890667 46.819556-30.890667 46.819555 0z m392.931556 0v203.662222c0 30.947556-46.819556 30.947556-46.819556 0v-203.662222c0-30.890667 46.819556-30.890667 46.819556 0zM370.744889 522.467556V655.246222c0 81.351111 62.520889 134.257778 138.808889 134.257778 38.115556 0 71.793778-7.395556 101.148444-34.019556 27.534222-24.974222 41.870222-61.553778 41.870222-98.816v-134.200888c0-30.890667 46.876444-30.890667 46.876445 0 0 49.607111 2.503111 99.953778-0.568889 149.447111-6.257778 100.408889-91.534222 165.546667-185.059556 165.546666-43.918222 0-84.423111-8.647111-120.206222-36.181333a179.541333 179.541333 0 0 1-68.437333-122.766222c-5.347556-51.256889-1.251556-104.561778-1.251556-156.046222 0-30.890667 46.819556-30.890667 46.819556 0z"  horiz-adv-x="1024" />

    
    <glyph glyph-name="xiangpica" unicode="&#58959;" d="M358.4 46.08h563.2v-51.2H358.4zM137.5232 314.1632a51.2 51.2 0 0 1 0-72.3968l181.0432-180.992a51.2 51.2 0 0 1 72.3968 0l434.4832 434.432a51.2 51.2 0 0 1 0 72.3968l-181.0432 181.0432a51.2 51.2 0 0 1-72.3968 0l-434.4832-434.4832z m-36.1984 36.1984l434.4832 434.4832a102.4 102.4 0 0 0 144.7936 0l181.0432-181.0432a102.4 102.4 0 0 0 0-144.7936L427.1616 24.576a102.4 102.4 0 0 0-144.7936 0l-181.0432 180.992a102.4 102.4 0 0 0 0 144.7936zM193.792 411.2896l36.1984 36.1984 300.6976-300.7488-36.2496-36.1984z"  horiz-adv-x="1024" />

    
    <glyph glyph-name="down-jiantou" unicode="&#58883;" d="M1017.28884579 361.90890885l-662.73273745-1e-8L354.55610835 423.27305136 1017.28884579 423.27305136l-2e-8-61.36414251zM358.28692148 178.28092890999994L1.43220042 387.86227332l356.85472106 215.24570478 0-424.82704919z"  horiz-adv-x="1024" />

    
    <glyph glyph-name="cc-select" unicode="&#59033;" d="M333.085 148.73l-179.186 0c-37.053 0-67.194 30.143-67.194 67.195l0 537.556c0 37.052 30.141 67.194 67.194 67.194l627.15 0c37.053 0 67.195-30.141 67.195-67.194l0-313.574c0-12.358-10.063-22.399-22.399-22.399s-22.399 10.041-22.399 22.399l0 313.574c0 12.358-10.06 22.398-22.398 22.398l-627.149 0c-12.379 0-22.398-10.04-22.398-22.398l0-537.556c0-12.338 10.019-22.399 22.398-22.399l179.185 0c12.381 0 22.398-10.061 22.398-22.399 0.001-12.335-10.016-22.397-22.397-22.397zM669.059-75.251c-8.881 0-17.326 5.338-20.781 14.086l-76.032 190.035-132.726-151.713c-6.126-6.999-16.011-9.493-24.717-6.211-8.75 3.237-14.525 11.637-14.525 20.955l0 671.946c0 8.88 5.251 16.886 13.344 20.472 8.135 3.587 17.586 2.057 24.148-3.893l492.761-447.964c6.866-6.214 9.186-16.054 5.819-24.672-3.324-8.576-11.638-14.307-20.869-14.307l-190.866 0 77.302-193.226c4.594-11.463-1.007-24.498-12.469-29.137l-111.992-44.795c-2.753-1.094-5.597-1.619-8.354-1.619l-0.042 0.042zM579.466 193.527c1.224 0 2.537-0.088 3.762-0.307 7.698-1.312 14.087-6.518 17.018-13.779l81.237-203.159 70.43 28.173-81.236 203.157c-2.756 6.913-1.925 14.787 2.232 20.912 4.2 6.123 11.11 9.842 18.547 9.842l166.062 0-412.443 374.952 0-561.705 117.547 134.345c4.331 4.857 10.455 7.656 16.844 7.656l0-0.087z"  horiz-adv-x="1024" />

    
    <glyph glyph-name="delete" unicode="&#59227;" d="M352.869235 554.953534l63.815421 0 0-466.406592-63.815421 0 0 466.406592ZM480.363977 554.953534l63.816444 0 0-466.406592-63.816444 0 0 466.406592ZM607.859743 554.953534l63.814398 0 0-466.406592-63.814398 0 0 466.406592ZM364.183931 831.128527l297.806663 0 0-63.815421-297.806663 0 0 63.815421ZM894.893039 705.78989 129.105938 705.78989l0-63.815421 96.269577 0 0-704.264908 573.795415 0L799.17093 641.974469l95.723132 0L894.894062 705.78989zM735.354486 1.526005 289.189913 1.526005 289.189913 641.974469l446.164572 0L735.354486 1.526005z"  horiz-adv-x="1024" />

    
    <glyph glyph-name="copy" unicode="&#58975;" d="M857.373 830.71h-387.769c-34.211 0-62.044-27.833-62.044-62.043v-10.341h-63.077c-25.993 0-48.228-16.346-57.001-39.294h-120.856c-34.21 0-62.043-27.833-62.043-62.043v-657.655c0-34.21 27.833-62.043 62.043-62.043h550.115c34.21 0 62.043 27.833 62.043 62.043v49.634h78.588c34.21 0 62.043 27.833 62.043 62.043l0 657.655c0 34.21-27.833 62.043-62.043 62.043zM344.484 716.964h194.403c10.834 0 19.646-8.814 19.646-19.646 0-10.834-8.814-19.646-19.646-19.646l-194.403 0c-10.834 0-19.646 8.814-19.646 19.646-0.001 10.833 8.813 19.646 19.646 19.646zM737.423-0.666c0-11.403-9.278-20.681-20.681-20.681h-550.115c-11.404 0-20.681 9.278-20.681 20.681v657.655c0 11.403 9.277 20.681 20.681 20.681h120.112c8.198-24.027 30.978-41.362 57.744-41.362h194.403c26.768 0 49.546 17.335 57.744 41.362h120.112c11.403 0 20.681-9.278 20.681-20.681l0-657.655zM878.054 111.012c0-11.403-9.278-20.681-20.681-20.681h-78.588l-0 566.659c0 34.21-27.833 62.043-62.043 62.043h-120.856c-8.772 22.948-31.007 39.294-57.001 39.294h-89.964l-0 10.341c0 11.404 9.278 20.681 20.683 20.681h387.769c11.403 0 20.681-9.277 20.681-20.681l0-657.655zM620.597 561.747h-359.849c-11.422 0-20.681-9.26-20.681-20.681s9.259-20.681 20.681-20.681h359.85c11.421 0 20.681 9.26 20.681 20.681s-9.261 20.681-20.682 20.681zM620.597 441.798h-359.849c-11.422 0-20.681-9.26-20.681-20.681s9.259-20.681 20.681-20.681h359.85c11.421 0 20.681 9.26 20.681 20.681-0.001 11.42-9.261 20.681-20.682 20.681zM440.674 321.848h-179.925c-11.422 0-20.681-9.26-20.681-20.681s9.259-20.681 20.681-20.681h179.925c11.421 0 20.681 9.26 20.681 20.681 0 11.421-9.261 20.681-20.681 20.681z"  horiz-adv-x="1024" />

    
    <glyph glyph-name="color" unicode="&#59232;" d="M811.984589 567.447871c-57.139501 0-101.497797-44.358297-101.497798-101.497798s44.358297-101.497797 101.497798-101.497797 101.497797 44.358297 101.497797 101.497797c0.751836 57.139501-44.358297 101.497797-101.497797 101.497798z m0-163.900147c-35.33627 0-62.402349 27.066079-62.40235 62.402349 0 35.33627 27.066079 62.402349 62.40235 62.40235 35.33627 0 62.402349-27.066079 62.402349-62.40235 0-35.33627-26.314244-62.402349-62.402349-62.402349zM211.267995 567.447871c-57.139501 0-101.497797-44.358297-101.497797-101.497798s44.358297-101.497797 101.497797-101.497797 101.497797 44.358297 101.497798 101.497797-44.358297 101.497797-101.497798 101.497798z m0-163.900147c-35.33627 0-62.402349 27.066079-62.402349 62.402349 0 35.33627 27.066079 62.402349 62.402349 62.40235 35.33627 0 62.402349-27.066079 62.40235-62.40235 0-35.33627-27.066079-62.402349-62.40235-62.402349zM750.334075 684.734214c0 57.139501-44.358297 101.497797-101.497798 101.497798s-101.497797-44.358297-101.497797-101.497798 44.358297-101.497797 101.497797-101.497797c56.387665 0 101.497797 44.358297 101.497798 101.497797z m-102.249633-62.402349c-35.33627 0-62.402349 27.066079-62.40235 62.402349 0 35.33627 27.066079 62.402349 62.40235 62.40235s62.402349-27.066079 62.402349-62.40235c0-35.33627-26.314244-62.402349-62.402349-62.402349zM375.168142 786.232012c-57.139501 0-101.497797-44.358297-101.497797-101.497798s44.358297-101.497797 101.497797-101.497797S476.665939 627.594714 476.665939 684.734214s-44.358297 101.497797-101.497797 101.497798z m0-163.900147c-35.33627 0-62.402349 27.066079-62.402349 62.402349 0 35.33627 27.066079 62.402349 62.402349 62.40235 35.33627 0 62.402349-27.066079 62.40235-62.40235 0-35.33627-27.066079-62.402349-62.40235-62.402349zM272.166674-25.750367l62.402349-27.817915c54.883994-22.555066 115.030837-34.584435 177.433187-34.584435 35.33627 0 62.402349 27.066079 62.402349 62.40235 0 15.788546-6.014684 30.073421-15.788546 40.599119-18.044053 18.044053-27.817915 42.10279-27.817915 68.417034 0 57.139501 44.358297 101.497797 101.497797 101.497797h98.490456c139.84141 0 253.368576 113.527166 253.368575 253.368576 0 230.061674-212.017621 417.268722-472.152716 417.268722C251.115279 856.152717 39.849493 644.135095 39.849493 384c0-124.052863 43.606461-231.565345 121.797357-316.522761 3.759178-15.036711-3.007342-25.562408-16.540382-26.314243-9.022026-0.751836-18.795888 8.270191-18.795888 8.27019l-4.511014 3.759178c-4.511013 5.262849-8.270191 9.773862-12.781204 15.036711-67.665198 87.212922-109.016153 196.98091-109.016152 315.770925 0 281.938326 229.309838 511.248164 511.248164 511.248164s511.248164-205.251101 511.248165-457.116005c0-161.64464-131.571219-293.215859-293.215859-293.215859H632.295895c-35.33627 0-62.402349-27.066079-62.402349-62.40235 0-15.788546 6.014684-30.073421 15.788546-40.599119 18.044053-18.044053 27.817915-42.10279 27.817915-68.417034 0-57.139501-44.358297-101.497797-101.497797-101.497797-93.227606 0-180.440529 24.810573-255.624083 68.417034-0.751836 0.751836-17.292217 28.56975 15.788547 33.832599z"  horiz-adv-x="1026" />

    
    <glyph glyph-name="wenzi" unicode="&#58962;" d="M127.744 796.864l-25.856-206.976h25.856c0 72.448 56.896 129.344 129.344 129.344h181.12v-659.648c0-36.224-28.48-64.704-64.704-64.704h-64.64v-25.92h413.824v25.92h-64.64a64 64 0 0 0-64.704 64.704V719.296h181.12c72.384 0 129.344-56.96 129.344-129.344h25.792l-25.792 206.976H127.744v-0.064z"  horiz-adv-x="1024" />

    
    <glyph glyph-name="zihao" unicode="&#59083;" d="M262.4 704L0 64h64l83.2 198.4h307.2L531.2 64h64L332.8 704H262.4zM166.4 313.6l134.4 332.8 134.4-332.8H166.4z m832-153.6V345.6c6.4 102.4-44.8 153.6-166.4 153.6-108.8 0-166.4-38.4-185.6-121.6l51.2-12.8c12.8 64 57.6 96 134.4 89.6 83.2 6.4 121.6-32 115.2-102.4-6.4-19.2-64-32-160-44.8-102.4-12.8-153.6-57.6-153.6-134.4 0-70.4 44.8-108.8 134.4-108.8 89.6 0 147.2 32 179.2 83.2 0-32 6.4-57.6 19.2-76.8h57.6c-19.2 25.6-25.6 51.2-25.6 89.6z m-51.2 83.2c-6.4-89.6-64-134.4-160-140.8-70.4 0-102.4 25.6-102.4 76.8-6.4 57.6 38.4 89.6 128 96 70.4 6.4 115.2 25.6 134.4 44.8v-76.8z"  horiz-adv-x="1024" />

    
    <glyph glyph-name="pan_icon" unicode="&#59000;" d="M999.050 697.426l-173.617 173.607c-15.437 15.427-36.758 24.968-60.308 24.968s-44.87-9.541-60.308-24.968l-671.069-671.080c-0.317-0.317-0.42-0.748-0.717-1.085-3.484-3.697-5.987-8.356-7.071-13.536 1.746 5.457 1.603 5.293 1.521 5.099-1.226-2.946-1.975-6.363-2.058-9.945l-25.303-277.478c-0.074-0.767-0.115-1.659-0.115-2.56 0-15.708 12.732-28.442 28.438-28.446 0.861-0 1.71-0 2.571 0.113l279.426 25.405c3.632 0.344 6.962 1.321 9.986 2.822-1.773-0.795-1.599-0.641-1.405-0.559 4.877 2.202 8.889 5.582 11.789 9.789-3.587-4.259-3.157-4.157-2.829-3.839l533.477 533.446s0 0.061 0.051 0.082l137.542 137.542c15.413 15.446 24.943 36.766 24.943 60.313 0 23.546-9.531 44.867-24.945 60.314zM587.305 673.116l213.829-213.829-493.265-493.265-213.829 213.829zM59.839-68.179l16.824 185.014 168.19-168.19zM958.848 617.002l-117.503-117.503-213.839 213.819 117.513 117.513c5.142 5.153 12.252 8.34 20.106 8.34s14.964-3.188 20.106-8.34l173.617-173.597c5.136-5.154 8.312-12.264 8.312-20.116 0-7.852-3.176-14.963-8.313-20.117zM333.274 176.831c0.012-0 0.026-0 0.040-0 7.837 0 14.931 3.182 20.061 8.324l254.042 254.031c5.144 5.144 8.326 12.251 8.326 20.101 0 15.7-12.727 28.427-28.427 28.427-7.85 0-14.957-3.182-20.101-8.326l-254.041-254.031c-5.145-5.144-8.326-12.251-8.326-20.101 0-15.699 12.727-28.426 28.426-28.426 0.001 0 0.001 0 0.002 0z"  horiz-adv-x="1024" />

    
    <glyph glyph-name="tubiao-ceshi" unicode="&#58881;" d="M966.4 256V787.2H448V896H179.2L57.6 774.4V256H0v-384h1024v384h-57.6z m-38.4 492.8V256h-134.4V748.8h134.4z m-172.8 0V256H620.8V748.8h134.4z m-172.8 0V256H448V748.8h134.4z m-486.4-12.8h121.6V857.6h192V256H96V736z m544-704H384v64h256v-64z"  horiz-adv-x="1024" />

    
    <glyph glyph-name="qianjin-shi" unicode="&#58964;" d="M128 96h20.6l38.4 62.4c41 65.4 89.8 125.6 151.6 153.2 48.8 21.8 93.4 37.8 173.4 40V192l384 256-384 256v-160.6C386 537.8 295.8 502 225.4 431 120.8 325.6 128 193 128 159.6c0.2-17.8 0-43.4 0-63.6z"  horiz-adv-x="1024" />

    
    <glyph glyph-name="qianjin-kong" unicode="&#58965;" d="M128 96h20.6l38.4 62.4c41 65.4 89.8 125.6 151.6 153.2 48.8 21.8 93.4 37.8 173.4 40V192l384 256-384 256v-160.6C386 537.8 295.8 502 225.4 431 120.8 325.6 128 193 128 159.6c0.2-17.8 0-43.4 0-63.6z m416 416V641.4l296.2-193.6L544 254.4V384c-182 0-289.2-49.2-384.4-210.8 0 0-17.6 338.8 384.4 338.8z"  horiz-adv-x="1024" />

    
    <glyph glyph-name="houtui-shi" unicode="&#58966;" d="M895.8 159.6c0 33.6 7.2 166.2-97.4 271.4-70.4 70.8-160.6 106.8-286.6 112.4V704L128 448l384-256V351.6c80-2.2 124.8-18.2 173.4-40C747.2 284 796 223.6 837 158.4l38.4-62.4H896c0 20.2-0.2 45.8-0.2 63.6z"  horiz-adv-x="1024" />

    
    <glyph glyph-name="houtui-kong" unicode="&#58967;" d="M895.8 159.6c0 33.6 7.2 166.2-97.4 271.4-70.4 70.8-160.6 106.8-286.6 112.4V704L128 448l384-256V351.6c80-2.2 124.8-18.2 173.4-40C747.2 284 796 223.6 837 158.4l38.4-62.4H896c0 20.2-0.2 45.8-0.2 63.6z m-31.4 13.6C769.2 334.8 662 384 480 384v-129.6L183.8 447.8 480 641.4V512c402 0 384.4-338.8 384.4-338.8z"  horiz-adv-x="1024" />

    
    <glyph glyph-name="layers" unicode="&#59252;" d="M984.48 663.616L615.104 872.096c-50.272 28.384-136.672 28.416-187.04 0L58.688 663.616C30.432 647.648 14.912 625.312 14.912 600.672s15.552-46.976 43.776-62.912l369.376-208.512c25.152-14.208 58.368-22.016 93.504-22.016 35.168 0 68.384 7.84 93.536 22.016l369.376 208.512c28.256 15.936 43.808 38.272 43.808 62.912s-15.584 46.976-43.808 62.944z m-16.832-96.096l-369.376-208.512c-39.616-22.368-113.792-22.4-153.408 0L75.488 567.52c-16.768 9.472-26.368 21.568-26.368 33.152 0 11.616 9.6 23.68 26.368 33.184l369.376 208.512c19.808 11.2 47.776 17.6 76.672 17.6 28.928 0 56.896-6.432 76.704-17.6l369.376-208.512c16.768-9.472 26.4-21.568 26.4-33.184 0.032-11.584-9.568-23.68-26.368-33.152zM984.48 444.832a17.152 17.152 0 0 1-16.832-29.792c16.768-9.472 26.4-21.568 26.4-33.152s-9.632-23.68-26.4-33.152l-369.376-208.512c-41.536-23.456-111.808-23.488-153.408 0L75.488 348.736c-16.768 9.472-26.368 21.568-26.368 33.152s9.6 23.68 26.368 33.152a17.088 17.088 0 1 1-16.832 29.792C30.4 428.896 14.88 406.528 14.88 381.888s15.52-47.008 43.776-62.944l369.376-208.512c26.208-14.784 59.872-22.208 93.504-22.208 33.664 0 67.328 7.392 93.536 22.208l369.376 208.512c28.256 15.936 43.808 38.304 43.808 62.944s-15.552 47.008-43.776 62.944zM984.48 230.272a17.152 17.152 0 0 1-16.832-29.792c16.768-9.472 26.4-21.568 26.4-33.152s-9.632-23.68-26.4-33.184l-369.376-208.512c-41.536-23.456-111.808-23.488-153.408 0L75.488 134.176c-16.768 9.472-26.368 21.568-26.368 33.184 0 11.584 9.6 23.68 26.368 33.152a17.088 17.088 0 1 1-16.832 29.792C30.464 214.336 14.912 192 14.912 167.328s15.52-47.008 43.776-62.944l369.376-208.512c26.208-14.784 59.872-22.208 93.504-22.208 33.664 0 67.328 7.392 93.536 22.208l369.376 208.512c28.256 15.968 43.808 38.304 43.808 62.944s-15.584 47.008-43.808 62.944z"  horiz-adv-x="1028" />

    
    <glyph glyph-name="add" unicode="&#59363;" d="M864 416H544V736c0 17.7-14.3 32-32 32s-32-14.3-32-32v-320H160c-17.7 0-32-14.3-32-32s14.3-32 32-32h320v-320c0-17.7 14.3-32 32-32s32 14.3 32 32V352h320c17.7 0 32 14.3 32 32s-14.3 32-32 32z"  horiz-adv-x="1024" />

    
    <glyph glyph-name="Eraser-Tool" unicode="&#59011;" d="M494.933333 25.6h-102.4c-23.893333 0-47.786667 10.24-68.266666 30.72l-122.88 126.293333c-40.96 40.96-40.96 105.813333 0 146.773334l488.106666 512c3.413333 3.413333 6.826667 6.826667 13.653334 6.826666s10.24-3.413333 13.653333-3.413333l307.2-307.2c6.826667-6.826667 6.826667-17.066667 0-23.893333L570.026667 56.32c-17.066667-20.48-47.786667-30.72-75.093334-30.72z m204.8 778.24L225.28 305.493333c-27.306667-27.306667-27.306667-71.68 0-98.986666l122.88-126.293334c13.653333-13.653333 27.306667-20.48 44.373333-20.48h102.4c17.066667 0 37.546667 6.826667 51.2 20.48L983.04 520.533333l-283.306667 283.306667zM665.6 162.133333c-3.413333 0-10.24 0-13.653333 3.413334l-290.133334 290.133333c-6.826667 6.826667-6.826667 17.066667 0 23.893333s17.066667 6.826667 23.893334 0l290.133333-290.133333c6.826667-6.826667 6.826667-17.066667 0-23.893333 0-3.413333-6.826667-3.413333-10.24-3.413334zM221.866667 25.6h-204.8c-10.24 0-17.066667 6.826667-17.066667 17.066667s6.826667 17.066667 17.066667 17.066666h204.8c10.24 0 17.066667-6.826667 17.066666-17.066666s-6.826667-17.066667-17.066666-17.066667zM631.466667-76.8h-409.6c-10.24 0-17.066667 6.826667-17.066667 17.066667s6.826667 17.066667 17.066667 17.066666h409.6c10.24 0 17.066667-6.826667 17.066666-17.066666s-6.826667-17.066667-17.066666-17.066667z"  horiz-adv-x="1029" />

    
    <glyph glyph-name="thin-_write_pen_" unicode="&#58882;" d="M709.589333 817.749333a21.418667 21.418667 0 0 1-22.869333 4.778667L294.869333 669.098667a21.418667 21.418667 0 0 1-13.397333-22.570667c0.341333-2.602667 29.098667-264.32-271.36-616.533333a21.333333 21.333333 0 0 1 1.152-28.928l58.709333-58.709334v-0.042666h0.042667l58.709333-58.709334a21.12 21.12 0 0 1 15.104-6.229333c4.906667 0 9.813333 1.706667 13.866667 5.077333 352.170667 300.458667 614.101333 271.658667 616.533333 271.36a21.461333 21.461333 0 0 1 22.570667 13.354667l153.386667 391.936a21.418667 21.418667 0 0 1-4.778667 22.869333l-235.818667 235.776z m53.205334-620.373333c-64.853333 2.133333-304.512-8.576-617.770667-269.738667l-29.824 29.781334 413.141333 413.184c10.069333-5.333333 21.376-8.618667 33.536-8.618667 39.893333 0 72.32 32.469333 72.32 72.32s-32.469333 72.32-72.32 72.32-72.32-32.426667-72.32-72.32c0-12.16 3.285333-23.466667 8.618667-33.536l-413.184-413.184-29.781333 29.781333C316.501333 330.709333 327.552 570.496 325.034667 635.093333l364.245333 142.634667 216.021333-216.064-142.506666-364.288z m-230.528 236.928a29.696 29.696 0 0 0 59.306666 0 29.696 29.696 0 0 0-50.602666-20.949333 29.482667 29.482667 0 0 0-8.704 20.949333zM1012.736 637.098667L763.050667 886.784a21.333333 21.333333 0 0 1-30.165334-30.165333l249.685334-249.685334a21.248 21.248 0 0 1 30.208 0 21.333333 21.333333 0 0 1-0.042667 30.165334z"  horiz-adv-x="1024" />

    
    <glyph glyph-name="xiazai" unicode="&#59171;" d="M489.6 105.6c3.2-3.2 6.4-6.4 9.6-6.4 3.2 0 6.4-3.2 12.8-3.2 3.2 0 9.6 0 12.8 3.2 3.2 3.2 6.4 3.2 9.6 6.4l272 272c12.8 12.8 12.8 32 0 44.8-12.8 12.8-32 12.8-44.8 0L544 204.8V800c0 19.2-12.8 32-32 32s-32-12.8-32-32v-595.2l-217.6 217.6c-12.8 12.8-32 12.8-44.8 0-12.8-12.8-12.8-32 0-44.8l272-272zM960 320c-19.2 0-32-12.8-32-32v-256c0-19.2-12.8-32-32-32H128c-19.2 0-32 12.8-32 32v256c0 19.2-12.8 32-32 32s-32-12.8-32-32v-256c0-54.4 41.6-96 96-96h768c54.4 0 96 41.6 96 96v256c0 19.2-12.8 32-32 32z"  horiz-adv-x="1024" />

    
    <glyph glyph-name="full-screen" unicode="&#58880;" d="M909-63H780a30 30 0 0 0 0 60h99a20 20 0 0 1 20 20v99a30 30 0 0 0 60 0v-129a50 50 0 0 0-50-50z m20 685a30 30 0 0 0-30 30v99a20 20 0 0 1-20 20h-99a30 30 0 0 0 0 60h129a50 50 0 0 0 50-50v-129a30 30 0 0 0-30-30z m-157-28v-420a50 50 0 0 0-50-50H302a50 50 0 0 0-50 50V594a50 50 0 0 0 50 50h420a50 50 0 0 0 50-50z m-60-30a20 20 0 0 1-20 20H332a20 20 0 0 1-20-20v-360a20 20 0 0 1 20-20h360a20 20 0 0 1 20 20V564zM244 771h-99a20 20 0 0 1-20-20v-99a30 30 0 0 0-60 0V781a50 50 0 0 0 50 50h129a30 30 0 0 0 0-60zM95 146a30 30 0 0 0 30-30v-99a20 20 0 0 1 20-20h99a30 30 0 0 0 0-60H115a50 50 0 0 0-50 50V116a30 30 0 0 0 30 30z"  horiz-adv-x="1024" />

    
    <glyph glyph-name="tianjiawenjian" unicode="&#58946;" d="M660.299294 307.260235H363.700706a30.117647 30.117647 0 0 0 0 60.235294h296.598588a30.117647 30.117647 0 0 0 0-60.235294M512 158.960941a30.117647 30.117647 0 0 0-30.117647 30.117647V485.677176a30.117647 30.117647 0 0 0 60.235294 0v-296.598588a30.117647 30.117647 0 0 0-30.117647-30.117647M737.942588 896H160.647529C121.795765 896 90.352941 856.304941 90.352941 807.273412V8.914824c0-49.031529 31.442824-88.726588 70.294588-88.726589h702.704942c38.851765 0 70.294588 39.695059 70.294588 88.726589V632.711529L737.942588 896z m-30.298353-60.235294L873.411765 612.773647v-603.858823c0-17.106824-7.890824-27.286588-10.059294-28.491295l-701.620706-0.180705C158.479059-18.371765 150.588235-8.192 150.588235 8.914824V807.273412c0 17.106824 7.890824 27.286588 10.059294 28.491294h546.996706zM918.467765 557.778824h-187.693177c-44.574118 0-80.775529 37.888-80.775529 84.449882V843.414588h60.235294v-201.185882c0-13.312 9.216-24.214588 20.48-24.214588h187.753412v-60.235294z"  horiz-adv-x="1024" />

    
    <glyph glyph-name="crop" unicode="&#61069;" d="M916.768 134.08h-94.624V577.472c0 53.824-41.024 95.04-94.624 95.04H254.432v126.72c0 19.04-12.576 31.68-31.52 31.68-18.976 0-31.552-12.64-31.552-31.68v-126.72H96.736c-18.976 0-31.52-12.608-31.52-31.68 0-19.04 12.544-31.68 31.52-31.68H191.36V165.76c0-53.824 41.024-95.04 94.624-95.04H759.04v-126.688c0-19.04 12.544-31.68 31.52-31.68s31.552 12.64 31.552 31.68v126.72h94.624c18.976 0 31.52 12.608 31.52 31.68 0 19.04-12.544 31.68-31.52 31.68z m-157.696 0H285.984c-18.976 0-31.552 12.608-31.552 31.68V609.152h473.088c18.976 0 31.552-12.608 31.552-31.68V134.08z"  horiz-adv-x="1024" />

    


  </font>
</defs>
</svg>
